<?xml version="1.0" standalone="no"?>
<!DOCTYPE svg PUBLIC "-//W3C//DTD SVG 20010904//EN"
 "http://www.w3.org/TR/2001/REC-SVG-20010904/DTD/svg10.dtd">
<svg version="1.0" xmlns="http://www.w3.org/2000/svg"
 width="400.000000pt" height="400.000000pt" viewBox="0 0 400.000000 400.000000"
 preserveAspectRatio="xMidYMid meet">

<g transform="translate(0.000000,400.000000) scale(0.100000,-0.100000)"
fill="#000000" stroke="none">
<path d="M1445 3600 c-3 -5 -3 -10 1 -10 4 0 -1 -9 -11 -20 -10 -11 -26 -20
-37 -20 -10 0 -18 -4 -18 -8 0 -9 -59 -32 -83 -32 -10 0 -14 -6 -11 -14 8 -20
-28 -30 -38 -11 -5 8 -20 15 -34 15 -14 0 -34 5 -46 11 -27 14 -35 4 -15 -19
10 -10 17 -26 17 -35 0 -30 23 -67 42 -67 10 0 18 -4 18 -10 0 -5 11 -12 25
-16 19 -5 25 -13 25 -33 0 -14 7 -35 15 -45 8 -11 15 -32 15 -47 0 -15 5 -40
10 -54 7 -18 7 -33 -1 -46 -8 -17 -7 -23 8 -35 23 -17 33 -17 33 -1 0 8 9 22
20 32 18 16 23 17 45 5 29 -15 27 -17 46 34 14 38 17 40 57 40 41 0 42 1 42
34 0 25 -8 40 -30 58 -48 41 -63 147 -27 193 9 10 5 19 -15 36 -19 16 -23 26
-16 39 5 9 6 21 3 26 -8 13 -32 13 -40 0z"/>
<path d="M2136 3491 c-15 -22 -37 -57 -47 -80 -18 -40 -53 -65 -74 -52 -5 3
-31 6 -57 6 -59 0 -63 -18 -10 -40 46 -20 92 -63 92 -87 0 -26 58 -125 77
-132 19 -8 16 -11 42 41 11 23 30 44 41 48 11 3 20 11 20 16 0 6 11 20 24 32
38 35 40 60 9 93 -15 16 -29 28 -32 26 -3 -2 -9 11 -12 27 -4 17 -12 37 -18
45 -7 8 -9 25 -6 38 3 12 0 31 -7 40 -12 16 -16 14 -42 -21z"/>
<path d="M1843 3383 c-33 -4 -42 -16 -23 -28 25 -16 5 -25 -47 -22 -37 3 -71
-2 -93 -11 -19 -9 -39 -15 -43 -14 -4 1 -10 -5 -13 -13 -4 -8 -12 -15 -20 -15
-11 0 -14 -16 -14 -64 0 -54 4 -69 25 -94 28 -33 105 -82 129 -82 9 0 16 -5
16 -10 0 -6 11 -8 27 -4 l27 7 -20 -29 c-11 -16 -49 -96 -84 -179 -34 -82 -70
-158 -78 -168 -14 -16 -13 -19 6 -40 11 -12 29 -48 38 -79 10 -32 24 -58 30
-58 7 0 19 -9 27 -20 8 -11 27 -22 43 -25 35 -6 476 -36 480 -32 1 1 19 31 39
66 30 50 35 67 28 85 -14 31 4 74 39 92 45 23 63 94 23 94 -26 0 -17 15 29 50
44 32 97 105 111 152 4 12 13 32 19 43 7 11 16 39 20 62 6 40 4 43 -23 57 -16
9 -55 19 -87 25 -32 5 -60 14 -62 20 -2 6 -11 11 -19 11 -8 0 -28 11 -45 25
-16 14 -36 25 -43 25 -7 0 -15 6 -18 13 -3 8 -13 3 -30 -15 -14 -16 -31 -28
-37 -28 -6 0 -19 -20 -30 -45 -17 -39 -23 -45 -49 -45 -26 0 -33 7 -63 68 -19
37 -33 72 -31 78 5 16 -63 71 -97 77 -22 5 -29 13 -34 42 -4 19 -10 34 -14 33
-4 0 -22 -3 -39 -5z"/>
<path d="M885 3337 c-11 -7 -51 -14 -89 -17 -43 -3 -71 -10 -74 -17 -2 -8 6
-13 21 -13 16 0 28 -8 35 -25 18 -38 15 -42 -24 -41 -31 1 -37 -2 -39 -21 -1
-13 7 -30 17 -40 10 -9 18 -24 18 -33 0 -9 5 -21 11 -27 7 -7 3 -47 -15 -137
-14 -70 -26 -130 -26 -133 0 -3 -14 -3 -30 1 -17 3 -40 2 -53 -3 -12 -5 -40
-14 -62 -21 -46 -14 -95 -56 -95 -81 0 -10 -5 -21 -11 -24 -6 -4 -8 -13 -5
-21 3 -7 -6 -22 -19 -33 -14 -10 -25 -22 -25 -25 0 -13 83 -47 166 -67 58 -14
138 -47 228 -91 l138 -69 22 20 c16 15 36 21 68 21 31 0 48 5 51 14 3 8 18 16
34 18 16 2 32 12 38 24 21 43 37 54 76 54 30 0 41 -5 50 -22 21 -40 34 -43
179 -40 l139 3 11 55 c10 49 10 58 -6 75 -16 18 -16 20 -1 37 28 31 157 342
141 342 -7 0 -17 6 -21 14 -4 7 -26 23 -48 34 -53 27 -101 79 -110 120 -6 29
-10 32 -45 32 -39 0 -50 -11 -50 -50 0 -30 -27 -45 -54 -30 -29 15 -46 6 -46
-24 0 -35 -9 -37 -51 -9 -44 29 -43 27 -29 53 12 23 -6 128 -26 151 -8 8 -14
25 -14 37 0 36 -68 29 -82 -8 -3 -9 -18 -22 -34 -30 -16 -8 -42 -25 -58 -38
-20 -16 -31 -20 -36 -12 -4 6 -18 8 -32 5 -16 -4 -29 -1 -37 9 -8 9 -22 16
-32 16 -13 0 -19 7 -19 23 0 13 -6 31 -12 40 -11 13 -17 14 -33 4z"/>
<path d="M2587 3073 c-4 -3 -7 -21 -7 -38 0 -18 -7 -38 -14 -45 -8 -6 -20 -28
-27 -48 -16 -50 -55 -112 -86 -138 l-25 -21 32 -32 c33 -33 35 -44 15 -123
-10 -37 21 -77 58 -78 34 0 36 -24 5 -50 -25 -20 -27 -12 21 -109 21 -43 54 7
34 52 -7 14 -6 29 3 47 7 14 17 37 23 52 7 18 26 35 55 48 24 12 52 30 62 41
11 13 30 19 57 19 38 0 39 1 33 28 -4 15 -6 34 -6 42 1 8 3 42 3 76 2 63 10
80 60 122 34 30 34 42 -1 42 -15 0 -33 5 -38 10 -16 16 -73 30 -79 19 -14 -22
-46 -8 -60 25 -18 42 -31 52 -50 36 -11 -9 -16 -7 -25 9 -11 21 -30 27 -43 14z"/>
<path d="M2999 2953 c-33 -5 -41 -30 -23 -73 8 -17 11 -36 8 -41 -2 -5 2 -30
11 -56 10 -30 14 -62 11 -85 -4 -26 -2 -39 8 -45 8 -4 16 -17 18 -28 2 -11 10
-19 17 -17 7 1 29 -7 49 -18 47 -28 62 -21 62 34 0 32 7 53 23 73 13 15 33 48
45 72 l21 44 -46 41 c-59 53 -143 106 -163 105 -8 -1 -27 -4 -41 -6z"/>
<path d="M2894 2912 c-55 -48 -63 -67 -53 -111 5 -22 5 -46 -2 -63 -7 -17 -7
-32 -1 -44 18 -32 3 -54 -37 -54 -26 0 -47 -9 -72 -29 -20 -17 -47 -33 -62
-36 -18 -5 -31 -19 -43 -48 -19 -46 -25 -157 -9 -157 6 0 22 -13 37 -30 24
-27 28 -28 57 -17 18 6 42 22 54 35 22 23 22 24 3 38 -20 14 -20 14 0 29 23
17 30 18 53 5 32 -16 92 8 144 58 40 39 47 51 43 75 -3 15 -1 27 4 27 17 0 11
38 -7 48 -13 8 -16 22 -14 70 1 34 -3 71 -9 83 -7 12 -14 36 -16 53 -7 62 -16
106 -23 106 -3 0 -25 -17 -47 -38z"/>
<path d="M3222 2734 c-18 -31 -30 -59 -27 -62 3 -3 19 2 34 11 16 9 39 17 50
17 21 0 21 -1 5 -25 -14 -22 -14 -25 -1 -25 8 0 22 -3 30 -6 9 -3 16 2 19 14
5 17 12 18 63 14 52 -4 57 -3 52 13 -4 9 -10 28 -13 41 -8 30 -32 44 -78 44
-19 0 -38 5 -41 10 -3 6 -18 10 -33 10 -23 0 -33 -10 -60 -56z"/>
<path d="M2400 2751 c0 -5 5 -11 11 -13 8 -3 10 -17 5 -42 -5 -28 -15 -42 -41
-57 -36 -22 -47 -47 -38 -90 4 -22 -4 -45 -35 -96 -60 -102 -72 -138 -72 -215
0 -58 3 -69 15 -64 9 3 15 0 15 -8 0 -8 14 -19 30 -26 26 -11 33 -10 43 3 9
11 18 13 35 6 12 -4 22 -13 22 -19 0 -13 57 -13 65 0 4 6 12 7 22 1 10 -5 30
-3 53 6 36 15 38 17 35 59 -2 25 -8 50 -13 57 -11 13 7 69 27 81 15 10 14 26
-2 26 -18 0 -50 36 -43 48 3 5 -3 20 -13 33 -20 27 -18 43 13 78 l21 24 -22
-6 c-17 -4 -29 3 -49 26 -21 25 -25 37 -19 66 11 63 7 105 -11 118 -21 15 -54
17 -54 4z"/>
<path d="M3230 2665 c-7 -8 -20 -15 -30 -15 -14 0 -19 -10 -22 -39 -4 -51 21
-61 66 -26 23 18 35 21 49 14 13 -8 15 -14 7 -29 -23 -43 -4 -53 37 -20 14 11
36 20 48 20 13 0 26 7 29 16 4 10 14 14 26 11 14 -4 20 0 20 11 0 29 -14 39
-62 44 -41 5 -47 3 -57 -19 -8 -18 -14 -21 -28 -14 -10 5 -26 12 -35 15 -10 3
-18 15 -18 26 0 24 -13 26 -30 5z"/>
<path d="M410 2582 c0 -6 5 -14 10 -17 6 -3 10 -13 10 -21 0 -9 11 -30 25 -49
14 -18 24 -39 23 -46 -2 -7 6 -15 17 -17 11 -2 30 -15 43 -28 29 -31 53 -30
90 1 17 14 34 25 38 25 5 0 8 -28 6 -62 l-3 -63 87 1 c70 1 88 4 96 18 5 9 13
14 18 11 10 -6 70 34 70 46 0 20 -252 134 -365 166 -163 46 -165 47 -165 35z"/>
<path d="M3033 2583 c-7 -2 -13 -15 -13 -27 0 -13 -9 -31 -20 -41 -25 -22 -25
-26 -1 -52 11 -12 17 -24 14 -27 -4 -3 -2 -6 4 -6 5 0 20 12 34 26 42 45 54
47 111 20 34 -16 56 -22 62 -16 15 15 42 12 56 -5 14 -17 68 -14 80 4 7 12 28
19 62 20 15 1 38 47 38 78 0 21 -28 27 -45 9 -9 -9 -27 -16 -39 -16 -13 0 -29
-7 -36 -16 -8 -8 -25 -14 -39 -12 -23 3 -26 7 -23 36 l2 34 -29 -21 c-34 -25
-121 -23 -150 3 -17 16 -44 19 -68 9z"/>
<path d="M1630 2522 l-15 -47 -111 -3 c-128 -3 -124 1 -124 -104 l0 -58 38 0
c50 0 83 -24 80 -58 -1 -15 4 -37 11 -50 11 -20 10 -26 -4 -36 -29 -21 -46
-86 -34 -124 6 -19 9 -48 6 -65 -2 -17 0 -46 5 -64 l9 -33 71 0 71 0 -7 -31
c-5 -26 -1 -36 25 -60 37 -34 75 -38 84 -9 5 16 15 20 53 20 26 0 56 -7 66
-15 26 -20 66 -19 94 1 31 21 57 12 42 -16 -6 -11 -8 -26 -4 -32 9 -14 34 18
34 45 0 24 56 97 141 186 35 36 51 103 56 236 2 61 8 125 14 143 6 18 9 35 7
36 -1 2 -102 8 -223 15 -221 13 -295 24 -295 46 0 6 -11 17 -24 23 -17 7 -25
22 -30 51 -9 56 -19 57 -36 3z"/>
<path d="M1208 2529 c-10 -5 -18 -18 -18 -27 0 -24 -19 -42 -45 -42 -12 0 -30
-9 -40 -20 -13 -15 -31 -20 -67 -20 -26 0 -48 -4 -48 -10 0 -5 20 -10 45 -10
50 0 47 7 49 -99 1 -48 4 -56 36 -82 19 -16 45 -29 57 -29 27 0 63 -16 142
-60 40 -23 63 -30 94 -28 36 3 42 7 52 37 6 19 17 37 23 39 9 3 9 9 1 24 -6
11 -9 31 -6 44 5 30 -5 37 -68 44 l-50 5 1 88 c1 87 1 88 -22 83 -17 -5 -29 2
-48 25 -14 17 -26 35 -26 40 0 12 -40 11 -62 -2z"/>
<path d="M3078 2464 c-18 -14 -36 -31 -41 -39 -13 -24 -32 -17 -44 15 -13 35
-25 37 -50 11 -22 -24 -98 -42 -127 -32 -31 12 -50 3 -35 -15 19 -23 -4 -59
-54 -83 -38 -18 -49 -20 -71 -10 -15 7 -26 20 -26 32 0 19 -1 19 -26 -4 -31
-28 -47 -66 -37 -82 10 -14 14 -62 13 -140 -1 -33 3 -64 9 -70 5 -7 11 -26 13
-44 l3 -32 58 36 c60 36 107 40 107 7 0 -11 6 -13 20 -9 13 4 31 -1 49 -14 16
-12 40 -21 54 -21 14 0 35 -11 48 -25 14 -14 35 -25 51 -25 36 0 78 -20 78
-36 0 -8 -9 -28 -20 -46 -26 -43 -25 -57 4 -93 23 -29 26 -29 42 -13 11 10 19
35 20 59 1 23 10 61 19 85 13 36 15 51 6 76 -14 40 -3 157 16 180 8 9 20 15
27 12 7 -3 24 16 38 43 l26 48 -24 28 c-27 32 -32 67 -8 67 13 0 15 7 9 41 -9
50 -28 75 -77 99 -37 18 -37 18 -70 -6z"/>
<path d="M3230 2445 c-7 -9 -11 -17 -9 -18 2 -2 30 -18 62 -36 l58 -32 39 43
c22 23 40 46 40 50 0 12 -34 10 -47 -3 -6 -6 -27 -14 -46 -19 -29 -6 -39 -4
-53 11 -21 23 -28 24 -44 4z"/>
<path d="M3230 2392 c0 -5 4 -12 9 -17 5 -6 7 -24 4 -42 -4 -24 -9 -30 -22
-25 -15 6 -15 4 0 -18 24 -37 34 -35 67 14 28 41 29 46 14 60 -21 18 -72 38
-72 28z"/>
<path d="M2227 2088 c-9 -29 -19 -68 -22 -87 -5 -21 -14 -35 -26 -38 -10 -3
-21 -14 -24 -24 -4 -11 -17 -26 -29 -34 -13 -9 -40 -40 -61 -70 -35 -52 -37
-57 -21 -73 9 -10 16 -29 16 -43 0 -20 10 -28 68 -52 37 -15 70 -27 74 -27 4
0 24 11 44 25 20 14 48 25 61 25 13 0 35 7 48 16 20 13 31 14 56 5 47 -16 73
1 66 44 -3 18 0 38 6 44 9 9 8 16 -1 31 -6 11 -12 27 -12 35 0 11 -10 15 -35
15 -34 0 -35 1 -29 28 9 35 7 34 45 35 26 2 36 -3 46 -23 l13 -25 1 25 c1 14
3 31 3 37 2 17 44 46 56 38 15 -9 25 24 11 38 -6 6 -11 33 -11 59 0 26 -2 48
-5 48 -4 0 -20 -7 -36 -16 -17 -8 -37 -13 -45 -10 -7 3 -16 1 -19 -4 -12 -20
-72 -11 -88 13 -14 21 -15 21 -34 4 -18 -16 -23 -16 -56 -2 -20 8 -38 15 -40
15 -2 0 -11 -24 -20 -52z"/>
<path d="M2665 1995 c-54 -36 -74 -42 -93 -23 -17 17 -42 -8 -42 -44 0 -21 -6
-31 -20 -35 -22 -6 -26 -33 -9 -65 7 -14 8 -23 0 -31 -5 -5 -7 -22 -4 -37 8
-42 -30 -73 -81 -64 -21 3 -48 1 -60 -5 -11 -5 -39 -15 -62 -20 -40 -11 -75
-40 -87 -73 -5 -14 -1 -16 22 -12 15 3 47 0 72 -6 58 -16 127 -20 156 -9 28
10 43 -12 43 -66 0 -31 4 -37 29 -46 26 -9 29 -14 24 -43 -3 -18 0 -43 6 -55
14 -25 46 -28 59 -5 5 9 26 18 48 20 21 3 61 12 88 21 28 9 59 17 70 18 12 1
24 3 27 4 10 2 59 98 59 116 0 9 11 20 25 25 24 9 51 54 45 75 -8 30 -7 81 2
92 6 7 21 13 34 13 28 0 30 8 8 25 -15 10 -14 17 9 66 16 32 23 57 17 63 -5 5
-32 11 -59 14 -33 3 -51 9 -51 18 0 17 -15 26 -49 28 -15 1 -40 12 -55 23 -21
17 -33 20 -52 13 -18 -7 -24 -6 -24 5 0 12 -31 37 -42 34 -2 0 -25 -16 -53
-34z"/>
<path d="M2430 1910 c0 -5 9 -10 19 -10 11 0 23 5 26 10 4 6 -5 10 -19 10 -14
0 -26 -4 -26 -10z"/>
<path d="M1785 1783 c-16 -3 -35 -13 -43 -24 -7 -10 -22 -19 -34 -19 -13 0
-18 -5 -15 -14 6 -14 -10 -65 -32 -105 -9 -16 -10 -26 -3 -33 7 -7 7 -16 -1
-28 -8 -14 -8 -22 2 -34 9 -11 11 -30 6 -64 -6 -46 -5 -50 17 -56 34 -9 76 -7
82 3 7 11 61 -14 73 -32 4 -7 10 -34 13 -62 l5 -50 48 0 c26 0 47 4 47 10 0
11 94 105 121 121 14 8 107 165 122 206 5 13 -6 22 -46 41 -29 13 -65 27 -80
31 -25 6 -28 10 -22 36 7 33 4 36 -24 18 -28 -17 -54 -3 -49 27 6 27 -1 32
-20 13 -16 -16 -92 -11 -113 8 -8 7 -17 13 -20 13 -2 -1 -17 -4 -34 -6z"/>
<path d="M2996 1721 c-3 -5 -4 -28 -2 -52 5 -48 -20 -119 -41 -119 -7 0 -17
-9 -23 -21 -15 -27 4 -52 34 -43 26 8 76 59 76 77 0 8 9 22 20 32 25 23 21 99
-6 120 -22 16 -50 19 -58 6z"/>
<path d="M2209 1563 c-14 -9 -42 -48 -63 -87 -21 -39 -48 -78 -59 -88 -21 -16
-20 -16 18 -22 22 -4 54 -11 71 -16 17 -6 47 -10 67 -10 37 0 67 -27 67 -61 0
-9 7 -22 15 -29 8 -7 15 -21 15 -30 0 -12 10 -21 29 -25 16 -3 32 -13 35 -21
9 -22 25 -17 75 25 26 22 65 47 86 57 108 46 143 72 130 93 -10 16 -62 13 -69
-4 -3 -9 -18 -15 -35 -15 -40 0 -66 37 -56 80 6 26 3 31 -19 40 -23 8 -40 41
-35 66 7 36 -1 40 -64 36 -40 -3 -83 2 -117 12 -62 19 -58 19 -91 -1z"/>
<path d="M2893 1450 c-6 -34 -41 -58 -84 -58 -48 1 -99 -22 -99 -43 0 -17 5
-19 38 -14 20 4 48 12 61 18 19 9 25 9 28 0 3 -7 18 -13 34 -13 16 0 29 5 29
13 0 6 19 25 41 41 26 18 38 33 35 43 -3 8 -6 19 -6 24 0 4 -6 6 -14 3 -8 -3
-17 -1 -21 5 -13 21 -36 11 -42 -19z"/>
<path d="M2003 1313 c-37 -48 -54 -87 -63 -140 -5 -32 -3 -43 6 -43 7 0 23
-14 36 -30 21 -26 34 -32 90 -40 36 -5 72 -12 80 -15 10 -4 17 1 21 14 3 13
13 21 25 21 12 0 24 5 27 10 8 13 58 13 71 0 18 -18 81 1 103 31 18 24 19 29
6 29 -9 0 -18 7 -21 15 -4 9 -19 15 -35 15 -25 0 -29 4 -29 29 0 16 -6 34 -14
41 -8 6 -16 24 -18 38 -3 24 -9 28 -48 34 -25 4 -67 11 -95 17 -92 18 -110 15
-142 -26z"/>
<path d="M2230 1070 c0 -5 -9 -10 -20 -10 -13 0 -20 -7 -20 -20 0 -11 -1 -20
-2 -20 -2 0 -38 7 -81 15 -110 21 -117 20 -117 -11 0 -23 3 -26 26 -21 46 8
151 -32 193 -75 33 -33 43 -37 70 -32 36 7 40 -4 15 -41 -22 -34 -6 -31 39 8
43 37 58 92 39 146 -7 19 -7 33 -1 36 24 16 6 26 -35 20 -28 -5 -46 -3 -50 4
-9 14 -56 15 -56 1z"/>
<path d="M2000 980 c-59 -12 -132 -60 -207 -138 -75 -76 -84 -88 -59 -79 9 4
29 -10 51 -34 19 -22 40 -37 46 -33 6 3 18 -1 27 -9 9 -8 31 -22 47 -30 37
-20 135 -110 135 -125 0 -6 -7 -15 -16 -20 -10 -5 -14 -14 -9 -21 10 -16 41
12 62 56 8 18 43 55 77 82 69 55 136 162 117 185 -7 8 -6 21 4 39 14 27 13 27
-14 25 -21 -2 -36 6 -55 29 -42 50 -143 86 -206 73z"/>
</g>
</svg>
